<?xml version="1.0" encoding="UTF-8" standalone="no"?><svg xmlns="http://www.w3.org/2000/svg" xmlns:xlink="http://www.w3.org/1999/xlink" contentScriptType="application/ecmascript" contentStyleType="text/css" height="261px" preserveAspectRatio="none" style="width:329px;height:261px;" version="1.1" viewBox="0 0 329 261" width="329px" zoomAndPan="magnify"><defs/><g><!--class friends--><rect fill="#FFFFFF" height="46" style="stroke: #000000; stroke-width: 1.0;" width="73" x="128.5" y="96"/><rect fill="#FFFFFF" height="30" style="stroke: #000000; stroke-width: 1.0;" width="73" x="128.5" y="96"/><ellipse cx="142.5" cy="111" fill="#A9DCDF" rx="10" ry="10" style="stroke: #000000; stroke-width: 1.0;"/><path d="M142.0313,116.1406 L139.7188,116.1406 L142.4531,105.4688 L144.5469,105.4688 L147.2813,116.1406 L144.9688,116.1406 L144.2031,113.0156 L142.7969,113.0156 L142.0313,116.1406 Z M143.0625,108.375 L143.0625,108.375 L143.0625,111.9844 L143.9375,111.9844 L143.0625,108.375 Z "/><text fill="#000000" font-family="'Noto Sans', 'Noto Sans JP', sans-serif" font-size="14" font-style="italic" lengthAdjust="spacingAndGlyphs" textLength="43" x="155.5" y="116.7285">friends</text><line style="stroke: #000000; stroke-width: 1.0;" x1="129.5" x2="200.5" y1="126" y2="126"/><line style="stroke: #000000; stroke-width: 1.0;" x1="129.5" x2="200.5" y1="134" y2="134"/><!--class serval--><rect fill="#FFFFFF" height="58.5781" style="stroke: #000000; stroke-width: 1.0;" width="68" x="6" y="202"/><rect fill="#FFFFFF" height="30" style="stroke: #000000; stroke-width: 1.0;" width="68" x="6" y="202"/><ellipse cx="20" cy="217" fill="#ADD1B2" rx="10" ry="10" style="stroke: #000000; stroke-width: 1.0;"/><path d="M23.0313,221.625 Q22.2656,222.3906 20.2188,222.3906 Q19.1875,222.3906 18.4219,221.625 Q17.0469,220.25 17.0469,217.3594 Q17.0469,213.9688 18.5313,212.4844 Q19.2969,211.7188 20.2813,211.7188 Q22.3125,211.7188 22.9219,212.3281 Q24.0625,213.4688 24.0156,215.4375 L21.8125,215.4375 Q21.75,213.6875 21.1563,213.0938 Q20.8281,212.7656 20.2813,212.7656 Q20.2813,212.7656 20.2813,213.1406 Q19.3125,214.2344 19.3125,217.25 Q19.3125,219.875 20.2344,220.7969 Q20.6719,221.2344 20.6719,221.2344 Q20.7188,221.2344 21.1563,220.7969 Q21.7031,220.25 21.75,218.2813 L24.0625,218.2813 Q23.9063,220.75 23.0313,221.625 Z "/><text fill="#000000" font-family="'Noto Sans', 'Noto Sans JP', sans-serif" font-size="14" lengthAdjust="spacingAndGlyphs" textLength="38" x="33" y="222.7285">serval</text><line style="stroke: #000000; stroke-width: 1.0;" x1="7" x2="73" y1="232" y2="232"/><line style="stroke: #000000; stroke-width: 1.0;" x1="7" x2="73" y1="240" y2="240"/><ellipse cx="17" cy="251.7891" fill="#84BE84" rx="3" ry="3" style="stroke: #038048; stroke-width: 1.0;"/><text fill="#000000" font-family="'Noto Sans', 'Noto Sans JP', sans-serif" font-size="10" lengthAdjust="spacingAndGlyphs" textLength="30" x="25" y="254.3809">Waai()</text><!--class raccoon--><rect fill="#FFFFFF" height="58.5781" style="stroke: #000000; stroke-width: 1.0;" width="111" x="109.5" y="202"/><rect fill="#FFFFFF" height="30" style="stroke: #000000; stroke-width: 1.0;" width="111" x="109.5" y="202"/><ellipse cx="137" cy="217" fill="#ADD1B2" rx="10" ry="10" style="stroke: #000000; stroke-width: 1.0;"/><path d="M140.0313,221.625 Q139.2656,222.3906 137.2188,222.3906 Q136.1875,222.3906 135.4219,221.625 Q134.0469,220.25 134.0469,217.3594 Q134.0469,213.9688 135.5313,212.4844 Q136.2969,211.7188 137.2813,211.7188 Q139.3125,211.7188 139.9219,212.3281 Q141.0625,213.4688 141.0156,215.4375 L138.8125,215.4375 Q138.75,213.6875 138.1563,213.0938 Q137.8281,212.7656 137.2813,212.7656 Q137.2813,212.7656 137.2813,213.1406 Q136.3125,214.2344 136.3125,217.25 Q136.3125,219.875 137.2344,220.7969 Q137.6719,221.2344 137.6719,221.2344 Q137.7188,221.2344 138.1563,220.7969 Q138.7031,220.25 138.75,218.2813 L141.0625,218.2813 Q140.9063,220.75 140.0313,221.625 Z "/><text fill="#000000" font-family="'Noto Sans', 'Noto Sans JP', sans-serif" font-size="14" lengthAdjust="spacingAndGlyphs" textLength="51" x="153" y="222.7285">raccoon</text><line style="stroke: #000000; stroke-width: 1.0;" x1="110.5" x2="219.5" y1="232" y2="232"/><line style="stroke: #000000; stroke-width: 1.0;" x1="110.5" x2="219.5" y1="240" y2="240"/><ellipse cx="120.5" cy="251.7891" fill="#84BE84" rx="3" ry="3" style="stroke: #038048; stroke-width: 1.0;"/><text fill="#000000" font-family="'Noto Sans', 'Noto Sans JP', sans-serif" font-size="10" lengthAdjust="spacingAndGlyphs" textLength="86" x="128.5" y="254.3809">OmakaseNanoda()</text><!--class fennec--><rect fill="#FFFFFF" height="58.5781" style="stroke: #000000; stroke-width: 1.0;" width="73" x="255.5" y="202"/><rect fill="#FFFFFF" height="30" style="stroke: #000000; stroke-width: 1.0;" width="73" x="255.5" y="202"/><ellipse cx="269.5" cy="217" fill="#ADD1B2" rx="10" ry="10" style="stroke: #000000; stroke-width: 1.0;"/><path d="M272.5313,221.625 Q271.7656,222.3906 269.7188,222.3906 Q268.6875,222.3906 267.9219,221.625 Q266.5469,220.25 266.5469,217.3594 Q266.5469,213.9688 268.0313,212.4844 Q268.7969,211.7188 269.7813,211.7188 Q271.8125,211.7188 272.4219,212.3281 Q273.5625,213.4688 273.5156,215.4375 L271.3125,215.4375 Q271.25,213.6875 270.6563,213.0938 Q270.3281,212.7656 269.7813,212.7656 Q269.7813,212.7656 269.7813,213.1406 Q268.8125,214.2344 268.8125,217.25 Q268.8125,219.875 269.7344,220.7969 Q270.1719,221.2344 270.1719,221.2344 Q270.2188,221.2344 270.6563,220.7969 Q271.2031,220.25 271.25,218.2813 L273.5625,218.2813 Q273.4063,220.75 272.5313,221.625 Z "/><text fill="#000000" font-family="'Noto Sans', 'Noto Sans JP', sans-serif" font-size="14" lengthAdjust="spacingAndGlyphs" textLength="43" x="282.5" y="222.7285">fennec</text><line style="stroke: #000000; stroke-width: 1.0;" x1="256.5" x2="327.5" y1="232" y2="232"/><line style="stroke: #000000; stroke-width: 1.0;" x1="256.5" x2="327.5" y1="240" y2="240"/><ellipse cx="266.5" cy="251.7891" fill="#84BE84" rx="3" ry="3" style="stroke: #038048; stroke-width: 1.0;"/><text fill="#000000" font-family="'Noto Sans', 'Noto Sans JP', sans-serif" font-size="10" lengthAdjust="spacingAndGlyphs" textLength="33" x="274.5" y="254.3809">Haiyo()</text><polygon fill="#FFFF00" points="77.5,8,77.5,35.6094,252.5,35.6094,252.5,18,242.5,8,77.5,8" style="stroke: #000000; stroke-width: 1.0;"/><polygon fill="#FFFF00" points="77.5,8,77.5,35.6094,161,35.6094,165,95.779,169,35.6094,252.5,35.6094,252.5,18,242.5,8,77.5,8" style="stroke: #000000; stroke-width: 1.0;"/><line style="stroke: #000000; stroke-width: 1.0;" x1="242.5" x2="242.5" y1="8" y2="18"/><line style="stroke: #000000; stroke-width: 1.0;" x1="252.5" x2="242.5" y1="18" y2="18"/><text fill="#000000" font-family="'Noto Serif', 'Noto Serif JP', serif" font-size="14" lengthAdjust="spacingAndGlyphs" textLength="154" x="83.5" y="27.5332">みんな自由に生きている</text><path d="M124.774,155.559 C107.89,170.485 88.5109,187.6163 72.5465,201.7289 " fill="none" style="stroke: #000000; stroke-width: 1.0;"/><polygon fill="none" points="120.384,150.097,140.005,142.096,129.656,160.587,120.384,150.097" style="stroke: #000000; stroke-width: 1.0;"/><path d="M165,162.1442 C165,175.3673 165,189.6532 165,201.7289 " fill="none" style="stroke: #000000; stroke-width: 1.0;"/><polygon fill="none" points="158,162.0958,165,142.096,172,162.0957,158,162.0958" style="stroke: #000000; stroke-width: 1.0;"/><path d="M205.604,155.329 C222.82,170.3083 242.629,187.5436 258.933,201.7289 " fill="none" style="stroke: #000000; stroke-width: 1.0;"/><polygon fill="none" points="200.889,160.505,190.395,142.096,210.078,149.943,200.889,160.505" style="stroke: #000000; stroke-width: 1.0;"/></g></svg>