<?xml version="1.0" encoding="UTF-8" standalone="no"?><svg xmlns="http://www.w3.org/2000/svg" xmlns:xlink="http://www.w3.org/1999/xlink" contentScriptType="application/ecmascript" contentStyleType="text/css" height="234px" preserveAspectRatio="none" style="width:122px;height:234px;" version="1.1" viewBox="0 0 122 234" width="122px" zoomAndPan="magnify"><defs/><g><rect fill="#FFFFFF" height="26.5781" style="stroke: #000000; stroke-width: 1.0;" width="10" x="94" y="111.6094"/><line style="stroke: #000000; stroke-width: 1.0; stroke-dasharray: 5.0,5.0;" x1="25" x2="25" y1="83.6094" y2="156.7656"/><line style="stroke: #000000; stroke-width: 1.0; stroke-dasharray: 5.0,5.0;" x1="99" x2="99" y1="83.6094" y2="156.7656"/><text fill="#000000" font-family="'Noto Serif', 'Noto Serif JP', serif" font-size="14" lengthAdjust="spacingAndGlyphs" textLength="28" x="8" y="80.5332">ボブ</text><ellipse cx="25" cy="13" fill="#FFFFFF" rx="8" ry="8" style="stroke: #000000; stroke-width: 2.0;"/><path d="M25,21 L25,48 M12,29 L38,29 M25,48 L12,63 M25,48 L38,63 " fill="#FFFFFF" style="stroke: #000000; stroke-width: 2.0;"/><text fill="#000000" font-family="'Noto Serif', 'Noto Serif JP', serif" font-size="14" lengthAdjust="spacingAndGlyphs" textLength="28" x="8" y="170.2988">ボブ</text><ellipse cx="25" cy="183.375" fill="#FFFFFF" rx="8" ry="8" style="stroke: #000000; stroke-width: 2.0;"/><path d="M25,191.375 L25,218.375 M12,199.375 L38,199.375 M25,218.375 L12,233.375 M25,218.375 L38,233.375 " fill="#FFFFFF" style="stroke: #000000; stroke-width: 2.0;"/><rect fill="#D3D3D3" height="31.6094" style="stroke: #000000; stroke-width: 1.5;" width="44" x="77" y="51"/><text fill="#000000" font-family="'Noto Serif', 'Noto Serif JP', serif" font-size="14" lengthAdjust="spacingAndGlyphs" textLength="30" x="84" y="72.5332">Alice</text><rect fill="#D3D3D3" height="31.6094" style="stroke: #000000; stroke-width: 1.5;" width="44" x="77" y="155.7656"/><text fill="#000000" font-family="'Noto Serif', 'Noto Serif JP', serif" font-size="14" lengthAdjust="spacingAndGlyphs" textLength="30" x="84" y="177.2988">Alice</text><rect fill="#FFFFFF" height="26.5781" style="stroke: #000000; stroke-width: 1.0;" width="10" x="94" y="111.6094"/><polygon fill="#000000" points="82,107.6094,92,111.6094,82,115.6094,86,111.6094" style="stroke: #000000; stroke-width: 1.0;"/><line style="stroke: #000000; stroke-width: 1.0;" x1="25" x2="88" y1="111.6094" y2="111.6094"/><text fill="#000000" font-family="'Noto Sans', 'Noto Sans JP', sans-serif" font-size="10" lengthAdjust="spacingAndGlyphs" textLength="50" x="34.5" y="107.9902">こんにちは</text><polygon fill="#000000" points="36,134.1875,26,138.1875,36,142.1875,32,138.1875" style="stroke: #000000; stroke-width: 1.0;"/><line style="stroke: #000000; stroke-width: 1.0; stroke-dasharray: 2.0,2.0;" x1="30" x2="98" y1="138.1875" y2="138.1875"/><text fill="#000000" font-family="'Noto Sans', 'Noto Sans JP', sans-serif" font-size="10" lengthAdjust="spacingAndGlyphs" textLength="25" x="49.5" y="134.5684">Hello</text></g></svg>