<?xml version="1.0" encoding="UTF-8" standalone="no"?><svg xmlns="http://www.w3.org/2000/svg" xmlns:xlink="http://www.w3.org/1999/xlink" contentScriptType="application/ecmascript" contentStyleType="text/css" height="310px" preserveAspectRatio="none" style="width:314px;height:310px;" version="1.1" viewBox="0 0 314 310" width="314px" zoomAndPan="magnify"><defs/><g><rect fill="#FFFFFF" height="26.5781" style="stroke: #000000; stroke-width: 1.0;" width="10" x="188" y="63.6094"/><rect fill="#FFFFFF" height="26.5781" style="stroke: #000000; stroke-width: 1.0;" width="10" x="188" y="116.7656"/><rect fill="#FFFFFF" height="26.5781" style="stroke: #000000; stroke-width: 1.0;" width="10" x="188" y="169.9219"/><rect fill="#FFFFFF" height="54.1563" style="stroke: #000000; stroke-width: 1.0;" width="158" x="155" y="238.6563"/><line style="stroke: #000000; stroke-width: 1.0; stroke-dasharray: 5.0,5.0;" x1="29" x2="29" y1="35.6094" y2="309.8125"/><line style="stroke: #000000; stroke-width: 1.0; stroke-dasharray: 5.0,5.0;" x1="193" x2="193" y1="35.6094" y2="309.8125"/><rect fill="#D3D3D3" height="31.6094" style="stroke: #000000; stroke-width: 1.5;" width="42" x="8" y="3"/><text fill="#000000" font-family="'Noto Serif', 'Noto Serif JP', serif" font-size="14" lengthAdjust="spacingAndGlyphs" textLength="28" x="15" y="24.5332">カバ</text><rect fill="#D3D3D3" height="31.6094" style="stroke: #000000; stroke-width: 1.5;" width="56" x="165" y="3"/><text fill="#000000" font-family="'Noto Serif', 'Noto Serif JP', serif" font-size="14" lengthAdjust="spacingAndGlyphs" textLength="42" x="172" y="24.5332">カバン</text><rect fill="#FFFFFF" height="26.5781" style="stroke: #000000; stroke-width: 1.0;" width="10" x="188" y="63.6094"/><rect fill="#FFFFFF" height="26.5781" style="stroke: #000000; stroke-width: 1.0;" width="10" x="188" y="116.7656"/><rect fill="#FFFFFF" height="26.5781" style="stroke: #000000; stroke-width: 1.0;" width="10" x="188" y="169.9219"/><polygon fill="#000000" points="176,59.6094,186,63.6094,176,67.6094,180,63.6094" style="stroke: #000000; stroke-width: 1.0;"/><line style="stroke: #000000; stroke-width: 1.0;" x1="29" x2="182" y1="63.6094" y2="63.6094"/><text fill="#000000" font-family="'Noto Sans', 'Noto Sans JP', sans-serif" font-size="10" lengthAdjust="spacingAndGlyphs" textLength="100" x="58.5" y="59.9902">あなた，泳げまして？</text><polygon fill="#000000" points="40,86.1875,30,90.1875,40,94.1875,36,90.1875" style="stroke: #000000; stroke-width: 1.0;"/><line style="stroke: #000000; stroke-width: 1.0; stroke-dasharray: 2.0,2.0;" x1="34" x2="192" y1="90.1875" y2="90.1875"/><text fill="#000000" font-family="'Noto Sans', 'Noto Sans JP', sans-serif" font-size="10" lengthAdjust="spacingAndGlyphs" textLength="20" x="101" y="86.5684">いえ</text><polygon fill="#000000" points="176,112.7656,186,116.7656,176,120.7656,180,116.7656" style="stroke: #000000; stroke-width: 1.0;"/><line style="stroke: #000000; stroke-width: 1.0;" x1="29" x2="182" y1="116.7656" y2="116.7656"/><text fill="#000000" font-family="'Noto Sans', 'Noto Sans JP', sans-serif" font-size="10" lengthAdjust="spacingAndGlyphs" textLength="100" x="58.5" y="113.1465">空は飛べるんですの？</text><polygon fill="#000000" points="40,139.3438,30,143.3438,40,147.3438,36,143.3438" style="stroke: #000000; stroke-width: 1.0;"/><line style="stroke: #000000; stroke-width: 1.0; stroke-dasharray: 2.0,2.0;" x1="34" x2="192" y1="143.3438" y2="143.3438"/><text fill="#000000" font-family="'Noto Sans', 'Noto Sans JP', sans-serif" font-size="10" lengthAdjust="spacingAndGlyphs" textLength="20" x="101" y="139.7246">いえ</text><polygon fill="#000000" points="176,165.9219,186,169.9219,176,173.9219,180,169.9219" style="stroke: #000000; stroke-width: 1.0;"/><line style="stroke: #000000; stroke-width: 1.0;" x1="29" x2="182" y1="169.9219" y2="169.9219"/><text fill="#000000" font-family="'Noto Sans', 'Noto Sans JP', sans-serif" font-size="10" lengthAdjust="spacingAndGlyphs" textLength="110" x="53.5" y="166.3027">じゃあ、足が速いとか？</text><polygon fill="#000000" points="40,192.5,30,196.5,40,200.5,36,196.5" style="stroke: #000000; stroke-width: 1.0;"/><line style="stroke: #000000; stroke-width: 1.0; stroke-dasharray: 2.0,2.0;" x1="34" x2="192" y1="196.5" y2="196.5"/><text fill="#000000" font-family="'Noto Sans', 'Noto Sans JP', sans-serif" font-size="10" lengthAdjust="spacingAndGlyphs" textLength="20" x="101" y="192.8809">いえ</text><polygon fill="#000000" points="181,219.0781,191,223.0781,181,227.0781,185,223.0781" style="stroke: #000000; stroke-width: 1.0;"/><line style="stroke: #000000; stroke-width: 1.0;" x1="29" x2="187" y1="223.0781" y2="223.0781"/><text fill="#000000" font-family="'Noto Sans', 'Noto Sans JP', sans-serif" font-size="10" lengthAdjust="spacingAndGlyphs" textLength="140" x="41" y="219.459">あなた、何にもできないのねぇ</text><rect fill="none" height="54.1563" style="stroke: #000000; stroke-width: 1.0;" width="158" x="155" y="238.6563"/><polygon fill="#FFFFFF" points="155,238.6563,221,238.6563,221,242.6563,211,252.6563,155,252.6563,155,238.6563" style="stroke: #000000; stroke-width: 1.0;"/><text fill="#000000" font-family="'Noto Sans', 'Noto Sans JP', sans-serif" font-size="10" font-weight="bold" lengthAdjust="spacingAndGlyphs" textLength="21" x="170" y="250.0371">loop</text><text fill="#000000" font-family="'Noto Sans', 'Noto Sans JP', sans-serif" font-size="10" font-weight="bold" lengthAdjust="spacingAndGlyphs" textLength="72" x="236" y="251.0371">[ひとりヘコむ]</text><line style="stroke: #000000; stroke-width: 1.0;" x1="193" x2="235" y1="271.8125" y2="271.8125"/><line style="stroke: #000000; stroke-width: 1.0;" x1="235" x2="235" y1="271.8125" y2="284.8125"/><line style="stroke: #000000; stroke-width: 1.0;" x1="194" x2="235" y1="284.8125" y2="284.8125"/><polygon fill="#000000" points="204,280.8125,194,284.8125,204,288.8125,200,284.8125" style="stroke: #000000; stroke-width: 1.0;"/><text fill="#000000" font-family="'Noto Sans', 'Noto Sans JP', sans-serif" font-size="10" lengthAdjust="spacingAndGlyphs" textLength="30" x="200" y="267.6152">ううっ</text></g></svg>