<?xml version="1.0" encoding="UTF-8" standalone="no"?><svg xmlns="http://www.w3.org/2000/svg" xmlns:xlink="http://www.w3.org/1999/xlink" contentScriptType="application/ecmascript" contentStyleType="text/css" height="39px" preserveAspectRatio="none" style="width:260px;height:39px;" version="1.1" viewBox="0 0 260 39" width="260px" zoomAndPan="magnify"><defs/><g><!--class Wiki--><rect fill="#FFFFFF" height="30" style="stroke: #000000; stroke-width: 1.0;" width="58" x="6" y="8"/><rect fill="#FFFFFF" height="30" style="stroke: #000000; stroke-width: 1.0;" width="58" x="6" y="8"/><ellipse cx="20" cy="23" fill="#A9DCDF" rx="10" ry="10" style="stroke: #000000; stroke-width: 1.0;"/><path d="M19.5313,28.1406 L17.2188,28.1406 L19.9531,17.4688 L22.0469,17.4688 L24.7813,28.1406 L22.4688,28.1406 L21.7031,25.0156 L20.2969,25.0156 L19.5313,28.1406 Z M20.5625,20.375 L20.5625,20.375 L20.5625,23.9844 L21.4375,23.9844 L20.5625,20.375 Z "/><text fill="#000000" font-family="'Noto Sans', 'Noto Sans JP', sans-serif" font-size="14" font-style="italic" lengthAdjust="spacingAndGlyphs" textLength="28" x="33" y="28.7285">Wiki</text><!--class Wikipedia--><rect fill="#FFFFFF" height="30" style="stroke: #000000; stroke-width: 1.0;" width="91" x="168.5" y="8"/><rect fill="#FFFFFF" height="30" style="stroke: #000000; stroke-width: 1.0;" width="91" x="168.5" y="8"/><ellipse cx="182.5" cy="23" fill="#ADD1B2" rx="10" ry="10" style="stroke: #000000; stroke-width: 1.0;"/><path d="M185.5313,27.625 Q184.7656,28.3906 182.7188,28.3906 Q181.6875,28.3906 180.9219,27.625 Q179.5469,26.25 179.5469,23.3594 Q179.5469,19.9688 181.0313,18.4844 Q181.7969,17.7188 182.7813,17.7188 Q184.8125,17.7188 185.4219,18.3281 Q186.5625,19.4688 186.5156,21.4375 L184.3125,21.4375 Q184.25,19.6875 183.6563,19.0938 Q183.3281,18.7656 182.7813,18.7656 Q182.7813,18.7656 182.7813,19.1406 Q181.8125,20.2344 181.8125,23.25 Q181.8125,25.875 182.7344,26.7969 Q183.1719,27.2344 183.1719,27.2344 Q183.2188,27.2344 183.6563,26.7969 Q184.2031,26.25 184.25,24.2813 L186.5625,24.2813 Q186.4063,26.75 185.5313,27.625 Z "/><text fill="#000000" font-family="'Noto Sans', 'Noto Sans JP', sans-serif" font-size="14" lengthAdjust="spacingAndGlyphs" textLength="61" x="195.5" y="28.7285">Wikipedia</text><path d="M84.1797,23 C110.485,23 142.665,23 168.405,23 " fill="none" style="stroke: #000000; stroke-width: 1.0;"/><polygon fill="none" points="84.1579,29.9999,64.1578,23,84.1578,15.9999,84.1579,29.9999" style="stroke: #000000; stroke-width: 1.0;"/><text fill="#000000" font-family="'Noto Sans', 'Noto Sans JP', sans-serif" font-size="10" lengthAdjust="spacingAndGlyphs" textLength="68" x="82.25" y="17.3809">generalization</text></g></svg>