<?xml version="1.0" encoding="UTF-8"?>
<svg width="500" height="500" viewBox="-250 -250 500 500" xmlns="http://www.w3.org/2000/svg" xmlns:xlink="http://www.w3.org/1999/xlink">
	<title>五行</title>
	<!-- 此字型為全字庫正楷體，中華民國國家發展委員會，CNS11643中文標準交換碼全字庫網站，https://www.cns11643.gov.tw/。 -->
	<style type="text/css">
		circle,
		.ring {
			stroke      : #000;
			stroke-width: 1;
		}
	</style>
	<defs>
		<linearGradient gradientUnits="objectBoundingBox" id="grwood">
			<stop stop-color="#4eb" offset="0.1"/>
			<stop stop-color="#bfe" offset="0.5"/>
			<stop stop-color="#5cf" offset="0.9"/>
		</linearGradient>
		<linearGradient gradientUnits="objectBoundingBox" id="grfire">
			<stop stop-color="#f13" offset="0.1"/>
			<stop stop-color="#fa3" offset="0.5"/>
			<stop stop-color="#f73" offset="0.9"/>
		</linearGradient>
		<linearGradient gradientUnits="objectBoundingBox" id="grearth">
			<stop stop-color="#fc0" offset="0.1"/>
			<stop stop-color="#ff0" offset="0.5"/>
			<stop stop-color="#fb0" offset="0.9"/>
		</linearGradient>
		<linearGradient gradientUnits="objectBoundingBox" id="grmetal">
			<stop stop-color="#dff" offset="0.1"/>
			<stop stop-color="#fff" offset="0.5"/>
			<stop stop-color="#ddd" offset="0.9"/>
		</linearGradient>
		<linearGradient gradientUnits="objectBoundingBox" id="grwater">
			<stop stop-color="#000" offset="0.1"/>
			<stop stop-color="#777" offset="0.5"/>
			<stop stop-color="#003" offset="0.9"/>
		</linearGradient>
	</defs>
	<circle transform="rotate(45)" fill="url(#grearth)" cx="0" cy="0" r="97"/>
	<path transform="rotate(45)" fill="url(#grwater)" class="ring" d="M104,3.5A105,105 0 0,1 3.5,104L3.5,239A240,240 0 0,0 239,3.5z"/>
	<path transform="rotate(45)" fill="url(#grfire)" class="ring" d="M-104,-3.5A105,105 0 0,1 -3.5,-104L-3.5,-239A240,240 0 0,0 -239,-3.5z"/>
	<path transform="rotate(45)" fill="url(#grmetal)" class="ring" d="M104,-3.5A105,105 0 0,0 3.5,-104L3.5,-239A240,240 0 0,1 239,-3.5z"/>
	<path transform="rotate(45)" fill="url(#grwood)" class="ring" d="M-104,3.5A105,105 0 0,0 -3.5,104L-3.5,239A240,240 0 0,1 -239,3.5z"/>

    <path transform="translate(-223,-50)" d="M44.3 23.3 C44.2 23.7,44.3 24.2,44.9 25.5 L45.7 27.1 45.8 33.5 L45.8 40.0 45.3 40.1 C44.2 40.3,33.4 41.6,30.7 41.8 C28.4 42.0,27.9 42.1,27.8 42.4 C27.4 43.1,28.1 43.8,29.6 44.5 C31.4 45.3,33.1 45.4,36.4 44.7 C38.8 44.2,43.8 43.4,44.6 43.4 C45.0 43.4,45.0 43.4,44.6 44.4 C43.7 46.8,39.2 52.7,35.2 56.8 C34.0 58.0,32.4 59.5,29.1 62.3 C27.7 63.5,24.5 65.8,22.5 67.2 C20.8 68.3,20.4 68.7,20.4 69.2 C20.4 70.2,24.6 69.1,28.9 67.0 C30.9 65.9,33.9 64.0,35.9 62.4 C38.3 60.5,42.4 56.4,44.0 54.3 C44.8 53.3,45.6 52.4,45.7 52.4 C45.9 52.4,45.7 58.9,45.3 63.2 C45.1 65.0,44.8 67.5,44.5 68.7 C44.2 69.9,43.9 71.3,43.9 71.8 C43.6 73.8,44.6 77.0,45.7 78.3 C46.2 78.7,46.4 78.8,47.2 78.8 C48.3 78.8,48.7 78.5,49.6 76.9 C50.6 75.1,50.8 73.6,50.6 69.3 C50.4 65.7,50.6 50.1,50.9 49.9 C50.9 49.8,51.7 50.8,52.5 52.1 C56.7 58.6,61.0 64.2,62.8 65.9 C64.2 67.1,65.2 67.4,68.6 67.4 C70.9 67.4,78.0 66.7,79.8 66.3 C80.3 66.2,80.4 65.4,79.9 65.0 C79.8 64.9,78.1 64.2,76.1 63.4 C72.1 61.8,69.7 60.6,67.4 59.2 C64.7 57.6,61.4 55.0,58.7 52.6 C58.3 52.2,56.4 50.2,54.4 48.1 C52.5 46.0,50.8 44.3,50.8 44.2 C50.5 44.1,50.6 42.6,50.9 42.6 C51.0 42.6,52.5 42.5,54.1 42.3 C55.8 42.2,59.4 41.9,62.2 41.8 C65.0 41.7,67.6 41.5,67.9 41.5 C68.8 41.4,69.1 40.8,68.8 40.1 C68.5 39.4,68.0 38.9,66.6 38.2 C65.6 37.8,65.3 37.7,63.5 37.7 C62.3 37.7,59.4 38.0,56.2 38.5 C53.3 39.0,50.9 39.3,50.8 39.3 C50.7 39.2,50.9 32.9,51.2 30.6 C51.3 29.4,51.6 28.1,51.9 27.3 C52.5 25.6,52.5 25.2,51.8 24.4 C50.8 23.4,49.2 22.9,46.7 22.8 L44.4 22.8 44.3 23.3 "/>
    <path transform="translate(-50,-223)" d="M40.9 22.6 C40.6 23.2,40.6 23.5,41.3 24.6 C42.4 26.3,42.5 27.1,42.5 34.4 C42.4 45.8,41.6 51.0,39.0 56.2 C37.5 59.1,36.6 60.4,34.4 62.6 C31.4 65.5,28.8 67.4,24.3 69.6 C22.1 70.7,21.8 70.9,21.8 71.3 C21.8 71.8,21.9 71.8,23.2 71.8 C26.6 71.8,33.3 69.2,36.8 66.6 C38.5 65.4,41.3 62.4,42.3 60.9 C43.7 58.8,45.3 55.4,45.8 53.6 C46.5 50.9,46.4 50.9,47.8 53.4 C50.9 59.1,56.4 66.7,59.7 70.1 C61.6 72.1,62.8 72.4,67.3 72.4 C70.1 72.4,76.9 71.8,77.4 71.5 C77.7 71.3,77.7 70.5,77.4 70.2 C77.2 70.1,75.9 69.6,74.5 69.0 C64.3 65.0,58.4 60.7,51.6 52.2 C48.0 47.7,48.0 48.5,51.6 46.4 C55.0 44.5,58.5 42.0,61.1 40.0 C62.3 39.0,63.9 38.0,64.5 37.7 C65.2 37.4,66.0 37.0,66.4 36.9 C66.7 36.7,67.0 36.5,67.0 36.2 C67.0 35.5,65.8 34.1,64.4 33.1 C62.6 31.9,61.8 31.6,60.2 31.6 C58.9 31.6,58.8 31.6,58.6 32.1 C58.5 32.5,58.4 33.1,58.3 33.6 C58.2 34.2,57.9 35.0,57.7 35.5 C56.9 36.9,54.6 39.8,52.2 42.1 C50.3 44.0,47.6 46.3,47.4 46.1 C47.4 46.1,47.5 45.5,47.6 44.8 C47.9 42.9,48.4 37.3,48.6 33.1 C48.8 29.0,49.0 27.6,49.7 25.9 C50.3 24.5,50.2 24.0,49.0 23.4 C47.5 22.6,46.3 22.4,43.8 22.3 C41.2 22.1,41.2 22.1,40.9 22.6 M27.7 37.1 C27.4 37.5,27.7 38.3,29.0 40.9 C30.8 44.6,32.6 47.4,33.4 48.0 C33.9 48.3,34.3 48.4,35.1 48.4 C36.1 48.4,36.3 48.3,36.8 47.8 C37.3 47.3,37.4 47.1,37.4 45.9 C37.4 42.0,35.9 39.6,32.4 37.9 C30.8 37.1,30.4 37.0,29.2 37.0 C28.5 37.0,27.8 37.1,27.7 37.1 "/>
    <path transform="translate(-50,-50)" d="M44.3 26.5 C43.9 27.0,43.9 27.1,44.7 28.5 C46.0 31.2,46.0 31.3,46.1 39.5 L46.2 47.0 45.8 47.1 C45.3 47.2,39.2 47.9,35.4 48.4 C33.6 48.6,33.2 48.8,33.7 49.5 C34.5 50.8,36.9 51.3,41.2 51.1 C42.8 51.0,44.6 50.9,45.2 50.9 L46.3 50.7 46.1 58.2 C46.1 62.3,46.0 65.7,46.0 65.7 C45.7 66.0,31.9 67.4,26.1 67.7 C24.1 67.9,23.4 68.1,23.4 68.6 C23.4 69.0,24.7 70.3,25.9 70.9 C27.1 71.6,27.4 71.7,29.2 71.7 C30.8 71.8,31.7 71.7,34.2 71.2 C44.0 69.3,54.6 68.4,68.3 68.4 C75.5 68.4,76.0 68.4,76.4 68.0 C76.8 67.7,76.9 67.6,76.6 67.0 C75.9 65.4,72.1 63.4,69.6 63.4 C69.0 63.4,66.8 63.6,64.7 63.9 C60.6 64.4,51.6 65.3,51.5 65.2 C51.4 64.9,51.8 50.3,52.0 50.2 C52.1 50.1,53.1 50.0,54.2 49.8 C56.8 49.5,62.6 48.5,64.0 48.1 C65.5 47.7,66.0 47.2,65.6 46.5 C65.2 45.9,64.2 45.2,63.1 44.8 C61.5 44.2,59.6 44.3,56.6 45.1 C55.1 45.5,53.4 45.8,52.8 45.9 L51.8 46.0 51.9 44.5 C51.9 43.6,52.0 41.4,52.1 39.7 C52.2 35.7,52.8 32.2,53.5 30.7 C53.8 30.1,54.0 29.4,54.0 29.3 C54.0 28.7,53.1 27.9,51.5 27.2 C49.6 26.3,48.3 26.0,46.2 26.0 C44.7 26.0,44.6 26.0,44.3 26.5 "/>
    <path transform="translate(123,-50)" d="M45.6 24.9 C45.5 25.2,45.4 25.9,45.4 26.5 C45.4 27.6,44.8 29.7,44.0 31.2 C43.2 32.7,39.7 37.8,37.9 40.0 C34.1 44.8,26.8 51.5,22.1 54.6 C21.0 55.4,20.5 55.8,20.4 56.2 C20.4 56.6,20.4 56.6,21.5 56.6 C22.9 56.6,24.6 56.0,26.9 54.8 C34.5 50.7,40.3 45.2,47.1 35.8 C48.9 33.2,49.3 32.7,49.6 32.8 C50.4 33.2,53.8 37.4,60.8 46.6 C64.0 50.9,65.2 52.1,66.6 52.5 C69.0 53.2,78.8 52.5,79.8 51.5 C79.9 51.4,80.0 51.1,79.8 50.8 C79.7 50.5,78.9 50.1,76.2 49.0 C71.6 47.1,69.5 46.1,67.0 44.3 C64.2 42.3,63.1 41.3,58.1 36.4 C55.7 34.0,53.6 32.0,53.5 31.9 C53.4 31.8,52.8 31.3,52.2 30.9 C51.6 30.5,51.1 30.1,51.0 30.1 C51.0 30.0,51.3 29.7,51.7 29.2 L52.4 28.5 52.1 27.8 C51.7 27.1,49.3 24.9,48.5 24.6 C48.2 24.5,47.5 24.4,46.9 24.4 C45.9 24.4,45.8 24.4,45.6 24.9 M50.5 45.4 C49.5 45.6,46.5 46.1,43.8 46.6 C37.5 47.7,37.1 47.8,37.0 48.3 C36.9 49.6,40.7 50.6,43.4 50.0 C44.2 49.8,44.5 49.8,44.6 50.0 C45.0 50.7,45.2 51.8,45.3 53.9 L45.4 56.1 44.3 56.3 C41.3 56.6,33.4 57.4,32.8 57.4 C32.1 57.4,32.0 57.5,31.9 57.9 C31.7 58.6,32.4 59.3,33.9 59.8 C35.5 60.4,38.0 60.3,41.7 59.7 C43.3 59.4,44.8 59.2,45.0 59.2 C45.4 59.2,45.4 59.6,45.4 66.1 C45.4 72.5,45.4 73.0,45.1 73.0 C44.3 73.0,36.5 73.6,33.5 73.9 C31.8 74.1,29.7 74.2,29.0 74.2 C27.2 74.2,26.4 74.4,26.2 74.8 C25.9 75.4,26.6 76.1,28.5 77.0 L30.1 77.8 32.1 77.7 C33.2 77.7,35.3 77.4,36.7 77.1 C38.1 76.9,40.2 76.5,41.3 76.4 C45.4 76.0,55.3 75.4,61.9 75.2 C69.2 75.0,70.2 74.9,70.4 74.1 C70.5 73.4,69.3 72.5,67.6 71.8 C65.8 71.0,64.3 70.8,62.4 71.3 C60.8 71.6,56.8 72.1,53.7 72.3 C52.7 72.4,51.6 72.5,51.2 72.5 L50.5 72.6 50.7 65.7 C50.7 61.9,50.8 58.7,50.8 58.7 C50.9 58.7,53.3 58.5,56.3 58.4 C60.7 58.2,61.8 58.1,62.4 57.8 C62.8 57.7,63.1 57.4,63.2 57.2 C63.3 56.8,61.7 55.5,60.5 55.0 C58.6 54.3,57.3 54.3,54.2 54.9 C52.8 55.2,51.5 55.4,51.3 55.4 C50.9 55.4,50.9 54.0,51.3 52.1 C51.7 50.4,51.6 49.8,50.8 49.3 L50.2 48.8 50.9 48.7 C51.4 48.7,53.1 48.5,54.8 48.4 C57.7 48.2,59.0 47.9,59.0 47.4 C59.0 47.0,58.1 46.2,57.0 45.6 C55.9 45.1,55.6 45.0,54.0 45.0 C53.1 45.0,51.5 45.2,50.5 45.4 M57.2 60.8 C57.1 61.1,56.9 61.8,56.8 62.3 C56.6 63.4,55.2 65.6,53.1 68.2 C51.5 70.3,51.2 70.8,51.6 71.0 C52.2 71.4,53.1 71.2,54.9 70.1 C58.0 68.3,61.8 66.3,62.9 66.0 C63.9 65.7,63.9 65.6,63.9 64.9 C63.8 63.9,62.8 62.6,61.2 61.5 C60.0 60.7,59.6 60.5,58.6 60.4 C57.5 60.4,57.4 60.4,57.2 60.8 M33.2 63.6 C32.9 64.1,33.2 64.6,36.3 68.5 C38.6 71.4,39.3 72.0,40.7 72.0 C41.5 72.0,41.7 71.9,42.2 71.4 C43.8 69.9,43.4 66.6,41.5 65.4 C40.2 64.6,35.5 63.2,34.0 63.2 C33.6 63.2,33.3 63.3,33.2 63.6 "/>
    <path fill="#fff" transform="translate(-50,123)" d="M44.4 23.0 C43.9 23.5,43.9 23.6,44.4 25.2 C45.2 27.7,45.3 30.5,45.3 41.7 C45.2 53.2,44.9 66.1,44.6 67.1 C44.5 67.5,44.3 67.8,43.9 68.0 C43.4 68.2,43.0 68.2,40.8 67.7 C39.4 67.4,37.9 67.2,37.5 67.2 C36.1 67.3,36.4 67.8,38.8 69.8 C40.0 70.8,41.6 72.4,42.4 73.3 C43.2 74.2,44.3 75.4,44.8 75.8 C45.5 76.5,45.8 76.6,46.6 76.6 C47.5 76.6,47.6 76.5,48.2 75.9 C48.5 75.4,49.0 74.5,49.4 73.9 C50.6 71.4,50.6 71.3,50.5 60.6 C50.4 54.7,50.4 50.8,50.5 50.8 C50.6 50.8,52.1 52.5,53.7 54.7 C57.3 59.2,62.3 64.6,63.5 65.3 C64.8 66.1,66.5 66.2,70.6 66.0 C74.4 65.8,75.9 65.6,78.2 65.0 C79.8 64.6,80.1 64.4,79.9 63.9 C79.8 63.6,79.1 63.2,76.1 62.2 C73.0 61.1,67.7 58.8,65.1 57.4 C60.7 54.9,57.5 52.5,53.4 48.5 L51.4 46.5 54.1 45.0 C58.6 42.7,59.4 42.1,62.5 39.8 C64.0 38.7,66.0 37.4,66.9 37.0 C67.7 36.5,68.5 36.0,68.5 35.9 C68.7 35.4,68.2 34.4,67.3 33.8 C65.4 32.5,63.0 31.6,61.3 31.6 C60.6 31.6,60.1 32.2,59.9 33.3 C59.7 34.4,59.0 35.6,57.3 37.8 C55.6 39.8,51.1 44.4,50.7 44.4 C50.4 44.4,50.4 44.2,50.5 43.3 C50.5 42.6,50.7 40.3,50.8 38.0 C51.1 32.7,51.3 31.3,52.0 29.2 C52.9 26.8,52.9 26.4,52.4 25.6 C51.8 24.8,50.8 24.2,48.4 23.3 C46.3 22.5,45.0 22.4,44.4 23.0 M37.2 40.2 C35.2 41.0,30.8 41.9,27.3 42.3 C25.8 42.5,24.1 42.7,23.7 42.7 C22.9 42.8,22.8 42.9,22.8 43.4 C22.8 43.9,23.0 44.1,23.9 44.7 C25.1 45.5,26.5 45.9,28.0 45.7 C28.6 45.6,30.7 45.2,32.6 44.7 C36.9 43.5,36.9 43.5,36.8 44.3 C36.7 45.8,33.4 51.4,30.3 55.5 C28.5 57.9,24.2 62.1,20.9 64.7 C19.1 66.1,19.0 66.4,20.7 66.4 C23.7 66.4,29.0 63.5,32.5 59.9 C35.6 56.8,36.9 55.0,41.3 47.8 C41.8 46.9,42.7 45.7,43.4 45.1 C44.1 44.4,44.6 43.8,44.6 43.6 C44.6 43.0,42.6 40.8,41.2 39.9 C40.4 39.4,38.9 39.5,37.2 40.2 "/>

    <path transform="translate(-203,-90)" d="M26.8 12.9 C26.7 13.1,26.7 13.3,26.8 13.7 C27.1 15.1,27.1 17.9,26.7 18.1 C26.6 18.2,24.1 18.5,21.6 18.8 C20.2 18.9,20.0 18.9,19.9 19.1 C19.9 19.4,20.2 19.8,20.7 20.0 C21.2 20.2,23.8 20.2,25.3 20.0 C25.9 19.9,26.4 19.9,26.5 20.0 C26.6 20.1,26.3 21.4,26.0 22.3 L25.8 23.1 23.8 23.3 C22.8 23.4,21.5 23.6,21.0 23.6 C20.3 23.7,20.2 23.7,20.1 23.9 C20.0 24.2,20.3 24.6,20.8 24.8 C21.3 25.0,22.9 25.0,24.1 24.8 C24.7 24.7,25.1 24.7,25.1 24.7 C25.2 24.8,24.9 25.8,24.5 26.8 C24.3 27.3,24.1 27.5,23.9 27.5 C21.7 28.0,18.7 28.3,16.9 28.3 C15.6 28.3,15.2 28.4,15.2 28.8 C15.2 29.2,15.7 29.6,16.6 30.1 C17.1 30.4,17.4 30.4,18.3 30.4 C19.2 30.4,19.7 30.3,21.2 29.9 C22.2 29.6,23.1 29.4,23.1 29.4 C23.2 29.5,22.4 30.9,21.7 31.7 C20.8 32.9,18.7 35.0,17.6 35.9 C16.5 36.9,15.0 37.9,13.2 38.9 C11.9 39.6,11.5 39.9,11.7 40.2 C11.9 40.5,13.3 40.3,14.5 39.8 C17.3 38.9,19.1 37.8,21.4 35.7 C21.9 35.3,22.3 34.9,22.4 34.9 C22.4 34.9,22.5 35.2,22.6 35.5 C22.9 36.4,23.1 39.9,23.0 43.3 C23.0 45.7,23.0 46.1,23.2 46.4 C23.5 47.0,23.7 47.2,24.4 47.2 C25.0 47.2,25.1 47.1,25.4 46.4 L25.5 45.9 27.2 45.8 C28.1 45.8,29.3 45.7,29.9 45.7 L31.0 45.6 31.4 46.2 C31.6 46.5,32.0 47.1,32.2 47.6 L32.7 48.4 33.4 48.5 C34.2 48.5,34.6 48.2,35.2 47.5 C36.1 46.3,36.2 45.2,35.7 42.5 C35.4 40.4,35.3 36.5,35.7 35.5 C35.8 35.1,35.9 34.6,35.9 34.4 C35.9 34.2,36.0 34.2,36.6 34.9 C37.0 35.3,38.0 36.3,38.7 37.1 C41.2 39.7,41.9 39.8,47.3 38.7 C48.2 38.5,48.9 38.3,48.9 38.2 C49.0 37.9,48.6 37.6,47.1 37.2 C44.5 36.4,41.6 35.1,40.0 34.0 C39.0 33.3,35.0 30.1,34.7 29.7 C34.6 29.7,34.2 29.3,33.7 28.9 L32.7 28.1 35.7 28.0 C37.4 28.0,39.7 28.0,40.7 28.0 C42.3 28.0,42.6 27.9,42.8 27.8 C42.9 27.6,42.9 27.5,42.9 27.3 C42.7 26.8,42.4 26.4,41.3 26.0 C40.3 25.5,40.2 25.5,39.2 25.5 C38.4 25.5,37.7 25.6,36.9 25.8 C35.2 26.3,33.6 26.5,30.3 26.8 C28.7 27.0,27.4 27.1,27.4 27.1 C27.3 27.0,28.2 24.6,28.3 24.4 C28.4 24.3,31.7 23.8,34.1 23.5 C36.7 23.1,37.1 23.0,36.6 22.4 C36.0 21.7,34.1 21.5,32.3 22.0 C30.2 22.5,28.8 22.7,28.8 22.5 C28.8 22.3,29.5 19.7,29.6 19.6 C29.6 19.6,30.1 19.5,30.8 19.4 C32.6 19.2,36.0 18.7,36.8 18.5 C37.5 18.3,37.5 18.3,37.5 17.9 C37.5 17.5,37.4 17.4,37.0 17.2 C36.3 16.8,34.7 16.8,32.9 17.2 C31.3 17.5,30.0 17.7,30.0 17.6 C30.0 17.5,30.6 15.8,30.8 15.4 C31.0 15.1,31.1 14.7,31.0 14.6 C30.9 14.1,30.2 13.6,29.3 13.1 C28.6 12.8,28.4 12.7,27.7 12.7 C27.0 12.7,26.9 12.8,26.8 12.9 M30.8 29.0 C31.4 29.4,32.6 30.6,33.6 31.7 C35.5 33.6,36.1 34.3,35.3 33.7 C34.5 33.1,33.6 32.6,33.0 32.6 C32.6 32.5,32.2 32.6,31.2 32.9 C29.8 33.4,25.9 34.2,25.0 34.2 C24.7 34.2,24.1 34.2,23.7 34.1 L23.1 34.0 23.7 33.3 C24.5 32.3,25.2 31.3,26.0 29.8 C26.3 29.2,26.6 28.7,26.6 28.7 C26.6 28.7,29.3 28.4,29.7 28.3 C29.8 28.3,30.3 28.6,30.8 29.0 M32.4 34.9 C32.7 35.1,32.8 35.8,32.7 37.3 L32.7 38.4 31.4 38.4 C30.4 38.4,29.9 38.4,28.7 38.7 C27.2 39.1,25.6 39.4,25.5 39.3 C25.4 39.3,25.7 35.8,25.8 35.7 C25.9 35.7,29.4 34.8,29.9 34.8 C31.1 34.6,32.3 34.7,32.4 34.9 M32.6 42.8 L32.5 43.9 31.2 43.9 C30.5 43.9,29.0 44.0,27.8 44.2 C26.6 44.3,25.7 44.4,25.6 44.4 C25.6 44.4,25.6 43.5,25.5 42.6 L25.4 40.8 26.5 40.8 C27.2 40.8,28.5 40.6,30.1 40.3 L32.6 39.9 32.6 40.8 C32.6 41.3,32.6 42.2,32.6 42.8 "/>
    <path transform="translate(30,-203)" d="M35.7 13.0 C34.8 13.2,26.9 14.0,21.8 14.5 C20.4 14.7,18.7 14.8,18.1 14.9 C17.5 15.0,16.6 15.0,16.2 15.1 C15.6 15.1,15.5 15.2,15.4 15.4 C15.3 15.7,15.6 16.0,16.4 16.4 C17.4 16.9,18.7 16.8,22.0 16.3 C23.4 16.1,24.7 16.0,24.9 16.0 L25.4 16.0 25.3 16.6 C25.2 17.1,24.6 18.5,24.3 19.0 C24.2 19.1,23.9 19.3,23.5 19.3 C23.0 19.4,22.8 19.4,22.3 19.3 C21.9 19.2,21.3 19.1,20.9 19.1 C20.1 19.1,20.0 19.1,20.0 19.4 C19.9 19.5,20.0 19.9,20.1 20.2 C20.5 21.3,20.7 24.6,20.6 27.7 C20.5 30.0,20.5 30.5,20.7 30.9 C20.9 31.5,21.4 31.7,22.1 31.7 C22.6 31.6,22.7 31.6,22.7 31.8 C22.7 32.1,22.4 33.1,22.0 33.8 L21.7 34.6 20.9 34.6 C20.5 34.6,20.0 34.6,19.8 34.7 C19.1 34.9,19.2 35.6,19.9 35.9 C20.2 36.0,20.4 36.1,20.6 36.1 C20.7 36.2,20.7 36.3,20.1 37.1 C19.8 37.7,19.1 38.6,18.7 39.1 C17.8 40.2,15.3 42.8,13.8 44.1 C13.3 44.5,13.0 44.9,13.0 45.0 C13.1 45.1,13.3 45.1,13.7 45.1 C14.1 45.1,14.4 45.0,15.5 44.4 C18.1 42.9,20.0 41.2,22.2 38.5 C22.8 37.8,23.4 37.1,23.4 37.1 C23.6 37.1,24.2 37.6,26.3 39.5 L27.3 40.4 26.8 40.8 C25.7 41.9,22.4 43.8,20.2 44.6 C19.7 44.8,19.2 45.0,19.0 45.2 C18.8 45.4,18.8 45.4,19.0 45.6 C19.4 45.9,21.5 45.6,23.6 45.1 C25.8 44.6,27.2 43.9,28.5 42.9 L29.4 42.3 30.0 42.8 C32.1 44.6,34.7 46.7,35.6 47.2 C36.8 47.8,40.5 47.5,44.1 46.5 C44.5 46.4,44.5 46.4,44.5 46.1 C44.5 45.7,44.9 45.9,38.8 44.0 C35.8 43.0,33.2 41.8,31.8 40.6 L31.4 40.2 32.0 39.6 C32.3 39.2,33.1 38.1,33.8 37.1 C34.5 36.1,35.4 35.0,35.7 34.6 C36.1 34.3,36.4 33.9,36.4 33.8 C36.4 33.3,35.8 32.8,34.8 32.3 C33.7 31.7,32.9 31.7,31.9 32.0 C31.1 32.2,27.9 32.8,26.9 32.9 C26.3 33.0,26.2 33.0,26.4 32.8 C26.8 32.6,26.6 32.1,25.8 31.3 L25.1 30.6 26.0 30.6 C26.5 30.6,27.7 30.5,28.6 30.4 C31.5 30.1,33.7 30.0,33.7 30.1 C33.7 30.2,33.8 30.4,34.0 30.7 L34.3 31.3 35.0 31.3 C35.7 31.3,35.8 31.3,36.1 31.0 C36.8 30.2,36.9 29.7,36.9 25.1 C36.9 21.2,36.9 21.0,37.2 20.5 C37.5 19.7,37.5 19.6,37.0 19.1 C36.4 18.5,35.8 18.2,35.0 17.9 C34.2 17.7,33.7 17.7,31.4 18.2 C29.8 18.5,27.0 18.9,26.9 18.8 C26.9 18.8,27.4 18.3,28.0 17.7 C28.6 17.2,29.0 16.6,29.0 16.6 C29.0 16.5,28.9 16.2,28.6 16.0 L28.2 15.6 28.8 15.6 C29.2 15.5,30.6 15.4,32.0 15.4 C33.4 15.3,35.4 15.2,36.4 15.1 C37.5 15.1,38.9 15.0,39.5 15.0 C40.7 15.0,40.9 14.9,40.9 14.5 C40.9 14.0,40.5 13.6,39.5 13.2 C38.8 12.9,38.5 12.8,37.6 12.9 C37.0 12.9,36.1 12.9,35.7 13.0 M33.1 19.6 C33.4 19.8,33.6 20.3,33.6 21.0 L33.6 21.7 33.2 21.6 C32.5 21.4,31.4 21.5,29.9 21.8 C28.8 22.0,25.6 22.6,23.7 22.8 L23.3 22.9 23.3 21.8 L23.3 20.7 24.4 20.6 C25.0 20.6,26.0 20.5,26.6 20.3 C27.8 20.1,31.7 19.6,32.4 19.6 C32.7 19.6,32.9 19.6,33.1 19.6 M33.7 24.0 L33.7 25.1 32.7 25.0 C31.9 25.0,31.2 25.0,30.2 25.2 C28.6 25.5,23.9 26.2,23.5 26.2 C23.3 26.2,23.3 26.1,23.3 25.2 L23.3 24.2 24.0 24.2 C24.3 24.2,26.6 23.9,29.0 23.6 C31.4 23.2,33.4 22.9,33.5 22.9 C33.7 22.9,33.7 23.0,33.7 24.0 M33.7 26.7 C33.6 26.8,33.6 27.2,33.6 27.6 L33.6 28.4 32.9 28.3 C32.5 28.3,31.7 28.4,31.1 28.5 C29.8 28.7,26.2 29.1,24.4 29.2 C23.3 29.3,23.1 29.3,23.2 29.1 C23.2 29.0,23.3 28.6,23.3 28.2 L23.3 27.4 24.6 27.4 C25.3 27.4,26.9 27.2,28.3 27.1 C31.9 26.6,32.4 26.6,33.1 26.5 C33.6 26.5,33.7 26.6,33.7 26.7 M31.9 34.0 C31.6 35.0,29.2 38.6,28.9 38.4 C28.8 38.4,28.0 37.7,27.2 37.0 C26.3 36.2,25.3 35.5,25.1 35.3 C24.4 35.0,24.6 34.8,25.7 34.8 C26.3 34.8,27.3 34.6,29.0 34.2 C30.4 33.9,31.6 33.6,31.8 33.6 C32.0 33.6,32.0 33.6,31.9 34.0 "/>
    <path transform="translate(143,30)" d="M22.9 15.8 C22.0 17.2,18.6 19.7,15.0 21.5 C14.2 21.9,13.6 22.2,13.6 22.3 C13.5 22.8,13.7 22.8,14.8 22.8 C15.9 22.7,17.2 22.4,18.4 21.9 C19.1 21.6,19.2 21.6,19.3 21.8 C19.5 22.1,19.7 23.6,19.7 24.9 L19.7 26.0 19.1 26.1 C17.0 26.6,13.9 27.3,12.8 27.4 C11.4 27.6,11.2 27.8,11.3 28.3 C11.5 28.7,12.8 29.4,13.9 29.6 C14.7 29.7,14.8 29.7,16.6 29.0 C17.7 28.7,18.7 28.4,18.8 28.5 C18.9 28.5,18.8 28.8,18.2 30.1 C16.5 33.5,14.1 36.7,11.4 39.2 C10.4 40.1,10.4 40.4,11.2 40.4 C12.9 40.4,16.3 37.9,18.4 35.1 C19.5 33.6,19.5 33.5,19.6 33.6 C19.8 33.8,19.4 37.7,19.1 39.7 C18.5 42.8,18.5 42.8,19.0 44.1 C19.4 45.6,19.8 45.9,20.7 45.8 C21.3 45.8,21.3 45.8,21.6 45.3 C21.7 45.0,22.0 44.5,22.1 44.0 C22.3 43.3,22.4 43.1,22.3 37.9 C22.3 35.0,22.3 32.6,22.4 32.6 C22.4 32.6,22.8 33.1,23.3 33.7 C24.5 35.1,24.8 35.3,25.7 35.3 C26.3 35.3,26.5 35.2,26.7 35.0 C27.3 34.3,27.2 33.0,26.4 32.3 C25.9 31.8,24.5 31.1,23.2 30.7 L22.3 30.4 22.3 29.8 C22.3 29.4,22.4 28.7,22.4 28.3 L22.5 27.5 23.5 27.3 C24.1 27.2,25.0 27.1,25.6 27.0 C26.9 26.8,27.3 26.7,27.4 26.4 C27.5 26.0,27.3 25.7,26.6 25.4 C26.1 25.2,25.9 25.2,24.7 25.2 C23.9 25.3,23.2 25.3,23.0 25.4 L22.6 25.5 22.7 24.8 C22.8 24.1,22.9 23.8,23.3 22.3 C23.4 21.8,23.4 21.7,23.2 21.4 C23.1 21.3,22.8 21.0,22.4 20.8 L21.8 20.4 22.4 20.1 C23.1 19.7,25.6 18.7,26.4 18.4 C26.9 18.3,27.1 18.2,27.2 18.0 C27.3 17.5,26.9 16.8,26.0 16.1 C25.0 15.4,24.7 15.2,23.9 15.2 L23.2 15.2 22.9 15.8 M31.5 16.5 C31.4 16.7,31.5 17.0,31.6 17.3 C32.2 18.4,32.2 19.0,32.2 23.3 C32.2 27.8,32.0 29.8,31.5 32.2 C31.2 33.6,30.5 35.5,29.9 36.6 C28.9 38.5,27.0 40.5,24.9 41.8 C23.7 42.6,23.3 43.0,23.7 43.2 C23.9 43.4,24.4 43.3,25.8 42.9 C28.3 42.3,30.5 40.7,31.9 38.5 C32.6 37.5,33.4 35.8,33.8 34.6 C34.1 34.0,34.3 33.5,34.3 33.5 C34.4 33.5,34.7 34.2,35.1 35.0 C36.1 37.2,38.7 41.7,39.7 42.7 C40.4 43.5,40.8 43.6,42.9 43.6 C44.5 43.5,47.1 43.3,47.3 43.1 C47.6 42.8,47.0 42.4,45.7 41.7 C43.7 40.7,41.3 39.1,40.1 37.9 C38.9 36.6,36.9 33.9,35.9 32.3 C35.1 30.9,35.1 30.8,35.3 30.8 C35.4 30.8,37.4 29.6,39.5 28.2 C40.5 27.6,41.7 26.9,42.3 26.6 C42.8 26.3,43.3 26.0,43.4 25.8 C43.6 25.3,42.3 23.7,41.1 23.1 C40.7 22.8,40.4 22.8,40.0 22.8 C39.4 22.9,39.3 23.0,38.8 24.2 C38.3 25.6,35.5 29.4,35.1 29.2 C35.0 29.2,35.0 29.1,35.0 29.1 C35.0 28.8,35.4 23.8,35.5 21.5 C35.6 19.6,35.7 18.8,35.9 18.3 C36.0 17.9,36.1 17.5,36.1 17.3 C35.9 16.7,34.4 16.2,32.7 16.2 C31.6 16.2,31.6 16.2,31.5 16.5 M26.6 27.3 C26.5 27.6,27.9 30.7,28.4 31.2 C28.8 31.5,28.8 31.6,29.7 31.6 C30.9 31.6,31.2 31.3,31.1 30.0 C30.9 28.6,30.2 27.9,28.6 27.4 C27.5 27.1,26.7 27.0,26.6 27.3 "/>
    <path fill="#fff" transform="translate(-90,143)" d="M25.2 13.4 C25.2 13.5,25.0 14.1,24.9 14.8 C24.7 16.0,24.5 16.4,23.6 18.1 C22.2 20.5,20.3 22.9,17.8 25.4 C17.1 26.1,16.6 26.7,16.6 26.7 C16.6 26.8,16.8 26.9,17.2 26.9 C18.2 26.9,19.0 26.4,21.1 24.7 C21.7 24.2,22.3 23.8,22.4 23.7 C22.6 23.6,23.6 24.1,24.8 25.0 C26.3 26.2,26.6 26.4,26.6 26.6 C26.6 26.8,24.6 28.7,23.4 29.6 C20.7 31.7,18.4 33.2,15.2 34.9 C13.5 35.8,13.0 36.1,13.0 36.3 C12.9 36.6,13.0 36.6,13.6 36.6 C16.6 36.6,23.4 33.1,27.1 29.7 C27.6 29.3,28.0 28.9,28.2 28.7 L28.6 28.4 31.0 30.9 C33.9 33.7,35.8 35.3,36.7 35.7 C37.4 36.1,37.4 36.1,39.6 36.1 C41.8 36.0,43.9 35.8,46.2 35.3 C47.8 35.0,47.6 34.6,45.8 34.1 C39.6 32.2,35.9 30.5,32.2 28.0 C30.1 26.5,30.2 26.7,31.0 25.8 C31.3 25.5,32.1 24.5,32.7 23.8 C34.1 22.0,34.7 21.5,35.8 20.6 C36.9 19.7,37.0 19.5,36.1 18.7 C35.3 17.9,34.2 17.4,33.3 17.3 C32.7 17.3,32.4 17.3,30.9 17.8 C29.3 18.3,26.7 18.9,26.5 18.8 C26.4 18.7,27.8 16.8,28.5 16.2 C29.1 15.6,29.2 15.5,29.0 15.2 C28.9 14.8,28.8 14.7,28.0 14.1 C27.0 13.4,26.6 13.2,25.9 13.2 C25.5 13.2,25.3 13.3,25.2 13.4 M31.6 19.9 C31.7 20.1,31.4 20.6,30.5 22.0 C29.3 23.7,28.3 24.8,28.1 24.8 C28.0 24.8,27.7 24.7,27.4 24.4 C26.5 23.7,25.1 22.8,24.4 22.6 C24.1 22.5,23.8 22.4,23.8 22.3 C23.8 22.3,24.1 21.9,24.4 21.5 C24.8 21.0,25.1 20.7,25.1 20.6 C25.1 20.6,25.4 20.5,25.8 20.5 C26.9 20.5,28.9 20.3,29.9 20.0 C31.1 19.8,31.5 19.8,31.6 19.9 M25.3 32.8 C25.3 33.4,27.8 36.2,29.2 37.3 C31.0 38.7,32.7 38.3,32.5 36.5 C32.4 35.8,32.2 35.3,31.6 34.8 C31.0 34.1,30.3 33.8,28.7 33.2 C27.0 32.6,25.3 32.4,25.3 32.8 M23.7 39.5 C23.7 39.7,23.8 39.9,24.1 40.1 C24.8 40.7,27.0 43.0,28.5 44.6 C29.3 45.4,30.1 46.1,30.3 46.2 C30.9 46.5,31.8 46.5,32.2 46.2 C32.9 45.6,32.9 44.2,32.2 43.1 C31.5 42.0,30.9 41.6,28.9 40.8 C26.4 39.7,25.7 39.5,24.6 39.4 C23.9 39.3,23.8 39.4,23.7 39.5 "/>

    <path transform="translate(-203,30)" d="M26.2 12.1 C26.1 12.3,26.1 12.5,26.4 13.3 C26.8 14.3,26.8 14.5,26.9 16.1 L26.9 17.9 26.4 17.9 C26.2 18.0,24.6 18.1,22.9 18.3 C20.1 18.6,19.8 18.7,19.7 18.9 C19.5 19.2,20.1 19.7,21.0 19.9 C21.7 20.1,24.8 20.0,26.3 19.8 L26.9 19.8 26.9 21.0 C26.9 21.7,26.8 22.3,26.8 22.3 C26.7 22.3,25.6 22.5,24.4 22.6 C22.3 22.9,21.7 23.0,19.3 22.9 C18.3 22.9,18.3 22.9,18.1 23.2 C18.0 23.5,18.0 23.5,18.5 24.1 C19.5 25.1,19.6 25.5,20.2 29.3 C20.7 32.0,20.8 32.5,21.3 32.9 C21.9 33.3,22.9 33.1,23.1 32.5 C23.2 32.2,23.2 32.2,23.9 32.2 C24.3 32.2,25.0 32.1,25.4 32.1 L26.2 32.0 25.4 33.0 C24.3 34.5,21.6 37.2,19.7 38.6 C17.6 40.3,15.1 42.0,13.9 42.7 C13.0 43.2,12.5 43.6,12.7 43.8 C12.8 44.1,13.9 43.9,15.4 43.4 C19.0 42.2,22.0 40.3,25.1 37.2 L26.7 35.7 26.6 37.1 C26.5 39.1,26.2 41.7,25.9 43.1 C25.7 44.1,25.7 44.5,25.8 44.9 C26.0 45.9,26.4 46.9,26.7 47.4 C27.0 47.7,27.1 47.8,27.7 47.8 C28.4 47.8,28.6 47.6,29.1 46.8 C29.7 45.7,29.8 45.1,29.7 40.4 C29.7 38.0,29.6 35.8,29.6 35.5 C29.5 35.3,29.6 35.0,29.6 35.0 C29.8 35.0,29.8 35.1,33.2 38.8 C36.1 42.0,36.9 42.8,37.7 43.1 C38.5 43.5,39.9 43.6,42.0 43.5 C43.5 43.3,47.3 42.8,47.5 42.6 C47.6 42.6,47.6 42.5,47.6 42.3 C47.6 42.1,47.5 42.0,45.3 41.4 C43.5 40.9,41.1 40.1,39.6 39.4 C37.9 38.6,34.4 36.3,32.8 34.8 C32.7 34.7,32.2 34.3,31.7 33.8 C29.9 32.2,29.6 32.0,29.6 31.8 C29.6 31.5,29.8 31.5,32.1 31.3 C33.2 31.2,33.7 31.2,33.7 31.3 C33.7 31.4,33.8 31.6,34.0 31.7 C34.2 32.0,34.3 32.0,34.8 32.0 C35.6 32.0,36.1 31.7,36.5 31.1 C36.8 30.6,39.0 24.4,39.0 24.2 C39.0 24.1,39.1 23.9,39.3 23.7 C39.8 23.1,39.7 22.7,39.1 22.1 C38.8 21.8,38.2 21.4,37.8 21.2 C36.7 20.7,35.9 20.7,32.6 21.3 C31.2 21.6,30.0 21.8,29.9 21.8 C29.9 21.8,29.8 21.4,29.9 20.7 C29.9 20.0,29.9 19.5,29.9 19.5 C29.9 19.5,31.0 19.3,32.2 19.1 C35.4 18.7,37.0 18.4,37.2 18.2 C37.3 18.1,37.3 17.9,37.3 17.7 C37.2 17.5,37.0 17.3,36.4 17.0 C35.3 16.5,34.4 16.5,32.8 16.9 C32.0 17.1,31.1 17.3,30.7 17.3 L30.0 17.4 30.0 16.7 C30.1 16.3,30.2 15.6,30.4 15.1 C30.8 13.5,30.8 13.4,30.2 12.9 C29.5 12.3,28.6 12.0,27.3 11.9 C26.4 11.9,26.3 11.9,26.2 12.1 M34.9 23.0 C35.1 23.3,35.1 23.7,35.0 24.7 L34.9 25.4 33.6 25.4 C32.7 25.3,32.0 25.4,31.0 25.5 C30.3 25.7,29.7 25.7,29.7 25.7 C29.7 25.7,29.7 25.1,29.7 24.5 L29.8 23.3 31.6 23.1 C32.6 23.0,33.6 22.9,33.8 22.9 C34.5 22.8,34.6 22.8,34.9 23.0 M26.9 25.0 L26.9 26.3 26.1 26.4 C24.7 26.6,23.4 26.8,23.0 26.8 L22.6 26.8 22.5 25.7 C22.3 24.5,22.3 24.4,22.8 24.4 C22.9 24.4,23.8 24.2,24.8 24.1 C25.9 23.9,26.7 23.8,26.8 23.8 C26.8 23.8,26.9 24.3,26.9 25.0 M34.5 27.6 C34.4 28.0,34.3 28.6,34.2 28.9 C34.1 29.4,34.0 29.4,33.7 29.3 C33.2 29.2,31.9 29.2,30.9 29.4 C29.4 29.8,29.5 29.8,29.6 28.6 C29.6 28.0,29.7 27.5,29.7 27.5 C29.7 27.5,34.1 26.8,34.5 26.8 C34.6 26.8,34.6 26.8,34.5 27.6 M26.9 29.0 C26.9 29.6,26.8 30.1,26.8 30.1 C26.7 30.1,26.1 30.2,25.3 30.3 C24.5 30.4,23.7 30.5,23.5 30.5 C23.2 30.5,23.1 30.4,23.0 29.0 L22.9 28.2 24.0 28.2 C24.5 28.2,25.3 28.1,25.6 28.1 C25.9 28.0,26.3 28.0,26.5 28.0 L26.9 28.0 26.9 29.0 "/>
    <path transform="translate(-90,-203)" d="M28.0 12.9 C27.9 13.1,27.8 13.2,27.9 13.6 C28.1 15.2,28.1 15.9,27.6 18.2 C27.4 19.5,27.1 20.5,27.1 20.6 C27.0 20.7,25.5 20.9,23.1 21.1 C21.9 21.2,20.8 21.4,20.8 21.4 C20.7 21.5,20.6 21.6,20.6 21.8 C20.6 22.0,20.8 22.1,21.3 22.4 C22.0 22.7,22.1 22.7,23.8 22.7 C24.8 22.7,25.8 22.7,26.1 22.6 C26.4 22.6,26.5 22.6,26.5 22.7 C26.5 22.8,26.2 23.9,25.9 25.1 C25.4 27.0,25.2 27.4,25.0 27.5 C24.9 27.5,23.4 27.7,21.8 27.9 L18.8 28.2 18.1 27.9 C17.5 27.6,17.3 27.6,16.6 27.6 C15.8 27.7,15.8 27.7,15.7 28.0 C15.7 28.2,15.8 28.6,15.9 29.1 C16.4 30.5,16.6 32.0,16.7 35.5 C16.7 37.3,16.8 39.0,16.7 39.2 C16.7 39.5,16.6 40.0,16.5 40.5 C16.4 41.3,16.4 41.4,16.7 42.2 C17.1 43.2,17.5 43.4,18.3 43.4 L18.9 43.4 19.2 42.7 C19.7 41.7,19.7 41.0,19.6 39.3 C19.4 37.8,19.1 29.8,19.2 29.7 C19.3 29.6,22.6 29.1,22.6 29.2 C22.6 29.2,22.9 29.8,23.2 30.5 C23.5 31.2,24.0 32.1,24.2 32.5 L24.7 33.2 23.2 33.3 C21.9 33.4,21.6 33.5,21.5 33.6 C21.4 33.8,21.4 33.9,21.7 34.1 C22.2 34.5,23.3 34.6,24.8 34.5 C25.8 34.4,26.2 34.5,26.2 34.6 C26.3 34.7,26.5 36.6,26.5 36.7 C26.4 36.7,23.7 37.1,22.0 37.2 C20.4 37.4,20.1 37.5,20.2 37.9 C20.2 37.9,20.5 38.2,20.9 38.4 C21.5 38.7,21.6 38.8,22.4 38.8 C22.9 38.8,23.6 38.7,24.1 38.6 C24.5 38.5,25.3 38.4,25.8 38.3 L26.7 38.2 26.6 38.8 C26.3 41.5,26.3 43.4,26.7 44.2 C26.8 44.4,26.9 44.5,27.4 44.5 C28.5 44.6,28.7 44.0,29.0 40.5 C29.2 39.1,29.3 38.0,29.3 37.9 C29.4 37.9,31.1 37.8,33.1 37.7 C35.2 37.6,36.9 37.5,36.9 37.5 C36.9 37.4,37.0 37.3,37.0 37.2 C37.0 36.8,36.4 36.3,35.6 35.9 C35.1 35.6,34.9 35.6,34.0 35.7 C33.4 35.7,32.2 35.9,31.2 36.0 L29.5 36.3 29.4 35.9 C29.4 35.7,29.5 35.4,29.6 35.2 C29.8 34.8,29.8 34.8,29.5 34.4 C29.4 34.2,29.2 34.1,29.1 34.1 C29.1 34.1,29.0 34.1,29.1 34.0 C29.1 34.0,29.9 33.9,30.9 33.8 C33.2 33.5,34.8 33.3,35.1 33.0 C35.6 32.8,35.4 32.4,34.8 32.1 C34.0 31.7,33.2 31.6,32.0 31.9 C31.4 32.0,30.9 32.1,30.9 32.1 C30.8 32.1,31.4 31.4,32.2 30.6 C32.9 29.8,33.5 29.1,33.5 29.0 C33.5 28.9,33.4 28.7,33.3 28.5 L33.0 28.1 35.8 28.0 C38.4 28.0,39.5 28.0,39.8 28.2 C40.2 28.5,40.2 29.5,40.1 32.6 C39.9 36.7,39.4 40.1,38.9 41.2 C38.6 41.6,38.1 42.0,37.7 42.0 C37.6 42.0,36.9 41.8,36.2 41.6 C34.9 41.2,34.6 41.1,34.3 41.2 C33.9 41.4,34.1 41.6,34.9 42.6 C35.4 43.2,36.0 44.0,36.3 44.5 C36.6 45.0,37.0 45.6,37.2 45.8 C37.6 46.2,37.7 46.2,38.3 46.2 C38.9 46.2,39.0 46.1,39.7 45.7 C40.6 45.1,41.1 44.5,41.7 43.4 C42.4 42.1,42.6 41.3,43.1 35.5 C43.7 30.3,43.7 29.8,44.3 28.7 C44.5 28.2,44.5 28.0,44.4 27.8 C44.2 27.3,43.5 26.8,42.4 26.3 C41.1 25.6,40.4 25.6,39.1 25.9 C38.1 26.2,28.5 27.2,28.4 27.1 C28.2 27.0,29.8 22.3,29.9 22.3 C30.3 22.3,34.0 21.8,35.3 21.6 C37.1 21.2,37.4 21.1,37.1 20.4 C36.7 19.5,34.7 19.2,32.1 19.7 C31.3 19.9,30.6 20.0,30.6 20.0 C30.6 19.9,31.0 18.6,31.4 17.3 C31.6 16.7,31.9 16.1,32.2 15.7 C32.4 15.4,32.6 15.0,32.6 14.9 C32.6 14.5,31.8 13.7,31.3 13.4 C29.9 12.7,28.4 12.5,28.0 12.9 M29.6 28.7 C29.6 29.1,29.2 30.3,28.7 31.5 C28.2 32.6,28.1 32.7,27.2 32.8 L26.8 32.9 26.8 32.0 C26.8 30.8,26.4 29.8,25.7 29.3 C25.4 29.1,25.2 28.9,25.2 28.9 C25.2 28.9,28.1 28.5,29.4 28.5 C29.6 28.4,29.6 28.5,29.6 28.7 "/>
    <path transform="translate(143,-90)" d="M33.4 16.8 C30.9 17.4,24.5 18.2,19.1 18.6 C17.9 18.7,17.6 18.7,17.4 18.9 C17.1 19.4,17.8 19.9,19.2 20.2 C20.0 20.4,20.5 20.4,21.7 20.4 L23.2 20.3 23.4 20.9 C23.5 21.4,23.6 22.1,23.6 24.2 C23.7 26.7,23.7 26.9,23.4 26.9 C23.3 26.9,22.0 27.0,20.6 27.2 C18.2 27.4,17.9 27.4,17.5 27.3 C17.2 27.2,16.4 27.1,15.8 27.0 C14.6 27.0,14.5 27.0,14.3 27.2 C13.9 27.6,14.0 27.9,14.5 28.4 C15.4 29.5,15.4 29.8,16.2 36.6 C16.7 40.3,16.9 42.1,17.1 42.3 C17.3 42.8,17.8 43.1,18.4 43.1 C19.0 43.1,19.2 42.9,19.3 42.1 C19.3 41.7,19.4 41.4,19.5 41.4 C19.9 41.4,25.8 41.0,29.1 40.7 C31.2 40.6,33.8 40.4,34.7 40.4 L36.5 40.3 37.0 41.1 C37.3 41.6,37.7 42.3,37.8 42.7 C38.3 43.7,38.4 43.8,39.1 43.8 C39.6 43.8,39.8 43.7,40.2 43.4 C40.7 42.9,41.6 41.3,41.8 40.5 C41.8 40.2,42.2 37.6,42.6 34.7 C43.0 31.8,43.4 29.3,43.4 29.1 C43.5 28.9,43.7 28.6,44.0 28.2 C44.2 27.9,44.4 27.5,44.4 27.3 C44.4 26.7,43.6 26.0,41.9 25.2 C41.2 24.8,40.9 24.7,40.2 24.7 C39.8 24.7,39.1 24.8,38.6 25.0 C37.5 25.3,34.6 25.8,33.3 25.9 L32.3 26.0 32.3 25.5 C32.4 25.3,32.5 24.4,32.5 23.4 C32.6 22.5,32.7 21.5,32.8 21.2 C33.1 20.4,33.1 20.1,32.6 19.7 L32.3 19.4 33.5 19.2 C35.5 19.0,37.8 18.6,38.2 18.5 C38.7 18.3,39.0 18.0,39.0 17.7 C39.0 17.4,38.9 17.3,37.5 16.8 C36.2 16.3,35.4 16.3,33.4 16.8 M29.4 20.2 C29.5 20.6,29.6 21.5,29.6 23.4 C29.5 25.0,29.5 26.2,29.5 26.2 C29.4 26.3,26.5 26.6,26.4 26.5 C26.4 26.4,26.4 25.3,26.5 24.0 C26.6 22.1,26.6 21.6,26.8 21.4 C27.1 21.1,27.0 20.7,26.7 20.3 C26.5 20.2,26.4 20.0,26.4 20.0 C26.4 20.0,27.0 19.9,27.7 19.8 C28.4 19.8,29.0 19.7,29.1 19.7 C29.2 19.7,29.3 19.9,29.4 20.2 M39.0 27.0 C39.5 27.1,39.6 27.2,39.7 27.4 C39.8 27.7,39.6 31.5,39.4 33.9 C39.3 34.9,38.8 38.3,38.7 38.4 C38.7 38.4,38.4 38.3,38.0 38.2 C37.3 38.0,35.8 38.0,34.8 38.2 C33.1 38.5,19.5 39.6,19.4 39.5 C19.4 39.4,19.2 37.3,18.9 34.6 C18.7 32.0,18.4 29.6,18.4 29.4 L18.3 29.0 20.5 28.7 C21.8 28.5,22.9 28.4,23.1 28.4 C23.5 28.3,23.5 28.4,23.2 29.8 C22.9 31.4,22.1 33.2,21.3 34.3 C20.5 35.5,20.5 35.6,21.2 35.6 C21.8 35.6,21.9 35.6,22.7 34.9 C24.6 33.4,25.7 31.5,26.1 29.0 L26.2 28.0 27.3 27.9 C27.9 27.8,28.6 27.7,28.9 27.7 L29.4 27.7 29.4 28.3 C29.4 28.7,29.4 29.7,29.4 30.5 C29.5 32.2,29.7 32.8,30.4 33.6 C31.2 34.4,31.7 34.5,34.7 34.5 C36.8 34.5,37.3 34.5,37.7 34.3 C38.0 34.2,38.2 34.0,38.2 33.9 C38.4 33.6,37.8 32.8,37.2 32.5 C36.5 32.1,36.2 32.1,34.8 32.4 C33.4 32.6,32.8 32.5,32.4 31.8 C32.1 31.3,32.1 31.2,32.1 29.5 C32.2 28.2,32.2 27.6,32.3 27.5 C32.4 27.4,33.6 27.3,35.3 27.1 C36.8 27.0,38.2 26.9,38.2 26.9 C38.3 26.9,38.7 26.9,39.0 27.0 "/>
    <path fill="#fff" transform="translate(30,143)" d="M29.5 14.7 C29.4 15.0,29.4 15.1,29.7 15.9 C30.2 17.2,30.2 18.5,29.9 27.2 C29.7 31.5,29.6 35.8,29.7 36.7 C29.8 39.9,30.5 41.3,32.4 42.3 C33.5 42.9,34.4 43.1,36.9 43.2 C40.4 43.3,42.0 43.0,43.9 42.1 C44.8 41.7,45.0 41.5,45.3 41.0 C45.5 40.7,45.7 40.3,45.7 40.1 C45.7 40.0,45.5 39.4,45.2 38.9 C44.6 37.8,44.4 37.1,44.0 34.9 C43.7 32.9,43.7 32.9,43.1 32.9 C42.5 32.9,42.5 32.9,42.1 35.3 C41.7 37.3,41.5 38.1,41.2 38.7 C40.9 39.2,40.0 39.8,39.3 40.0 C38.7 40.2,35.6 40.2,35.0 40.0 C34.1 39.7,33.3 39.1,33.0 38.5 L32.7 37.9 32.7 33.4 C32.7 31.0,32.8 28.8,32.8 28.5 L32.9 28.0 33.8 28.0 C34.7 28.0,36.7 27.6,39.7 26.9 C41.9 26.5,42.4 26.3,42.4 25.9 C42.4 25.3,41.3 24.8,39.7 24.8 C38.6 24.7,38.5 24.7,36.0 25.4 C34.6 25.8,33.3 26.1,33.2 26.1 C33.0 26.2,32.9 26.6,33.3 22.6 C33.5 20.2,33.7 19.0,33.9 18.2 C34.4 16.5,34.4 16.1,34.1 15.7 C33.9 15.5,33.4 15.2,32.9 14.9 C32.1 14.5,31.9 14.5,30.9 14.4 L29.7 14.4 29.5 14.7 M21.7 17.3 C21.1 17.4,21.0 17.8,21.4 18.4 C22.0 19.3,22.1 20.1,22.2 23.3 C22.2 26.1,22.2 26.3,22.0 26.3 C21.6 26.4,13.8 27.5,13.3 27.5 C13.2 27.5,13.2 27.6,13.2 27.7 C13.2 28.0,13.7 28.4,14.5 28.8 C15.2 29.1,16.6 29.1,17.7 28.8 C18.1 28.7,19.1 28.5,20.0 28.3 C20.8 28.2,21.7 28.1,21.9 28.0 L22.2 28.0 22.2 32.9 L22.1 37.9 20.6 38.2 C18.3 38.9,16.4 39.2,14.8 39.4 C13.8 39.4,13.2 39.5,13.2 39.6 C12.9 40.0,13.7 41.8,14.4 42.5 C14.8 42.9,14.9 43.0,15.5 43.0 C16.0 43.0,16.3 42.9,16.5 42.7 C17.1 42.2,18.6 41.5,21.5 40.2 C25.2 38.6,27.2 37.6,27.3 37.5 C27.3 37.4,27.3 37.2,27.3 37.1 C27.2 37.0,27.1 36.9,26.2 37.0 L25.1 37.0 25.2 31.0 C25.3 23.4,25.4 22.1,26.0 20.4 C26.2 19.8,26.4 19.1,26.4 19.0 C26.4 18.1,23.2 16.9,21.7 17.3 "/>

    <path transform="translate(-58,18)" d="M34.5 13.2 C34.3 13.4,34.3 13.9,34.6 14.7 C34.9 15.7,35.1 17.9,35.0 20.1 C34.9 21.8,34.9 21.9,34.6 22.0 C34.5 22.0,33.1 22.2,31.6 22.4 L28.8 22.7 28.0 22.4 C26.9 22.1,25.6 22.0,25.2 22.2 C24.8 22.4,24.9 22.9,25.4 23.6 C26.2 24.4,26.3 25.1,26.8 28.8 C27.1 30.7,27.3 32.4,27.4 32.6 C27.7 33.3,28.1 33.6,28.7 33.6 C29.3 33.6,29.5 33.4,29.9 32.7 C30.0 32.6,30.5 32.5,31.7 32.4 C32.7 32.3,33.7 32.2,34.1 32.2 L34.7 32.1 34.7 37.8 C34.7 43.3,34.8 46.2,35.0 46.7 C35.2 47.0,36.1 47.0,36.4 46.7 C37.2 45.9,37.6 42.2,37.8 35.5 L37.8 31.9 38.4 31.9 C38.8 31.8,40.8 31.7,42.9 31.6 C45.0 31.4,46.8 31.3,46.9 31.2 C47.3 31.1,47.2 30.7,46.8 30.3 L46.5 30.0 47.7 27.5 C48.9 25.1,49.0 24.9,49.7 24.2 C50.3 23.7,50.5 23.4,50.5 23.2 C50.5 22.9,50.0 22.3,48.9 21.4 C47.8 20.5,46.4 20.3,44.5 20.8 C43.6 21.0,40.9 21.4,38.9 21.5 L38.1 21.6 38.1 20.0 C38.2 17.9,38.3 16.6,38.6 15.9 C39.1 14.6,38.9 14.3,37.6 13.6 C36.8 13.2,36.6 13.1,35.7 13.1 C34.9 13.1,34.6 13.1,34.5 13.2 M74.4 14.1 C74.0 14.3,74.0 14.7,74.3 15.5 C74.8 16.4,75.0 18.1,75.1 20.7 L75.2 22.9 72.7 23.1 L70.3 23.4 69.6 23.0 C68.9 22.7,68.7 22.6,67.7 22.6 L66.5 22.5 66.4 22.8 C66.4 23.1,66.4 23.4,66.8 23.9 C67.0 24.3,67.3 25.0,67.4 25.3 C67.6 26.0,68.5 31.5,68.5 32.0 C68.5 32.2,68.5 32.2,66.4 32.4 C65.2 32.5,63.6 32.6,62.7 32.6 C60.8 32.7,60.6 32.7,60.5 33.0 C60.4 33.5,61.3 34.2,62.7 34.7 C63.8 35.0,64.4 35.0,66.1 34.6 C68.0 34.1,73.7 33.2,73.7 33.4 C73.7 33.4,73.5 33.8,73.4 34.3 C73.0 35.4,71.8 37.6,70.8 38.8 C69.1 41.1,66.1 43.3,62.5 44.8 C61.9 45.1,61.7 45.3,61.7 45.5 C61.7 45.7,61.8 45.7,62.4 45.7 C64.7 45.7,68.1 44.5,70.7 42.6 C73.0 41.0,75.2 37.8,76.4 34.4 L76.9 33.1 78.4 33.0 C79.3 32.9,82.8 32.9,86.3 32.8 C92.8 32.7,93.5 32.7,93.6 32.3 C93.6 31.9,93.0 31.3,92.0 30.8 C91.1 30.4,91.0 30.4,89.9 30.4 C89.3 30.4,87.8 30.5,86.7 30.6 C85.5 30.8,84.6 30.8,84.5 30.8 C84.4 30.7,85.8 26.5,86.3 25.6 C86.4 25.2,86.8 24.6,87.1 24.3 C87.4 24.0,87.6 23.7,87.6 23.6 C87.6 23.0,86.6 22.1,85.3 21.6 C84.5 21.3,83.3 21.3,81.9 21.8 C80.8 22.1,78.4 22.5,78.3 22.4 C78.3 22.4,78.4 19.5,78.6 18.2 C78.7 17.7,78.8 16.8,79.0 16.4 C79.4 15.1,79.1 14.8,77.3 14.3 C76.2 14.1,75.0 14.0,74.4 14.1 M44.9 22.8 C45.2 23.1,45.1 23.9,44.3 26.6 L43.5 29.3 41.6 29.5 C40.5 29.7,39.3 29.8,38.8 29.8 L38.0 29.9 38.0 26.5 C38.0 24.6,38.1 23.1,38.1 23.1 C38.1 23.1,39.0 23.0,40.0 22.9 C43.1 22.6,44.7 22.5,44.9 22.8 M34.8 26.9 C34.8 28.7,34.8 30.2,34.7 30.2 C34.7 30.2,33.7 30.3,32.4 30.4 C30.8 30.6,30.1 30.6,30.0 30.5 C29.9 30.3,29.3 24.7,29.4 24.6 C29.4 24.5,29.7 24.4,29.9 24.4 C30.5 24.2,34.7 23.4,34.8 23.5 C34.8 23.5,34.8 25.0,34.8 26.9 M82.3 24.0 C82.7 24.2,82.6 25.1,81.9 28.3 L81.2 31.1 79.3 31.3 C78.2 31.4,77.4 31.4,77.3 31.4 C77.3 31.4,77.4 30.5,77.6 29.4 C77.7 28.3,77.9 26.7,78.0 25.9 L78.2 24.4 79.3 24.2 C79.9 24.2,80.8 24.1,81.1 24.0 C82.1 23.9,82.1 23.9,82.3 24.0 M74.9 25.4 C74.9 25.8,74.8 26.7,74.8 27.5 C74.7 28.2,74.5 29.5,74.4 30.3 C74.1 31.6,74.1 31.7,73.8 31.7 C73.4 31.8,71.4 32.0,71.4 31.9 C71.4 31.9,71.2 30.4,71.0 28.6 C70.8 26.8,70.6 25.2,70.6 25.2 C70.7 25.2,73.9 24.8,74.8 24.7 C75.0 24.7,75.0 24.8,74.9 25.4 M79.4 36.7 C79.3 36.9,79.4 37.0,81.4 39.1 C82.2 39.9,83.4 41.3,84.3 42.2 C86.1 44.4,87.3 45.5,88.0 45.8 C88.6 46.1,90.0 46.2,90.2 45.9 C90.4 45.7,90.4 44.4,90.2 43.5 C89.7 41.6,87.4 39.5,83.9 37.8 C81.4 36.7,79.5 36.2,79.4 36.7 "/>
</svg>